<svg id="Iconly_Light-Outline_Notification" data-name="Iconly/Light-Outline/Notification" xmlns="http://www.w3.org/2000/svg" width="18.939" height="22.014" viewBox="0 0 18.939 22.014">
  <g id="Notification" transform="translate(0)">
    <path id="Combined_Shape" data-name="Combined Shape" d="M9.416,22.014a4.1,4.1,0,0,1-3.058-1.426A.767.767,0,0,1,7.5,19.563a2.583,2.583,0,0,0,1.918.915h0a2.593,2.593,0,0,0,1.925-.916.768.768,0,0,1,1.142,1.027,4.112,4.112,0,0,1-3.067,1.425ZM0,13.346a5.609,5.609,0,0,1,.967-3.3,5.24,5.24,0,0,0,.893-3.19C1.86,3.544,4.916,0,9.468,0s7.609,3.544,7.609,6.855a5.24,5.24,0,0,0,.893,3.19,5.559,5.559,0,0,1,.969,3.235c-.358,4.139-4.684,4.482-9.471,4.482S.353,17.425,0,13.346ZM3.395,6.855a6.678,6.678,0,0,1-1.112,3.981,4.044,4.044,0,0,0-.75,2.445,2.378,2.378,0,0,0,1.6,2.2c1.187.511,3.2.749,6.336.749,6.452,0,7.768-1.059,7.939-3.012a4,4,0,0,0-.753-2.377A6.687,6.687,0,0,1,15.54,6.855c0-2.516-2.494-5.319-6.073-5.319S3.395,4.339,3.395,6.855Z" transform="translate(0)" fill="#004cff"/>
  </g>
</svg>
