<svg width="65" height="65" viewBox="0 0 65 65">
              <defs>
                <filter
                  id="Ellipse_7"
                  x="0"
                  y="0"
                  width="65"
                  height="65"
                  filterUnits="userSpaceOnUse"
                >
                  <feOffset dy="3" input="SourceAlpha" />
                  <feGaussianBlur stdDeviation="3" result="blur" />
                  <feFlood flood-opacity="0.161" />
                  <feComposite operator="in" in2="blur" />
                  <feComposite in="SourceGraphic" />
                </filter>
              </defs>
              <g transform="matrix(1, 0, 0, 1, 0, 0)" filter="url(#Ellipse_7)">
                <circle
                  id="Ellipse_7-2"
                  data-name="Ellipse 7"
                  cx="23.5"
                  cy="23.5"
                  r="23.5"
                  transform="translate(56 6) rotate(90)"
                  fill="#fff"
                />
              </g>
              <g
                id="Iconly_Light-Outline_Arrow_-_Down_2"
                data-name="Iconly/Light-Outline/Arrow - Down 2"
                transform="translate(16.281 47.096) rotate(-90)"
              >
                <g
                  id="Arrow_-_Down_2"
                  data-name="Arrow - Down 2"
                  transform="translate(6.232 11.364)"
                >
                  <path
                    id="Stroke_1"
                    data-name="Stroke 1"
                    d="M.322.322A1.1,1.1,0,0,1,1.754.216l.123.106,9.487,9.486L20.851.322A1.1,1.1,0,0,1,22.283.216l.123.106a1.1,1.1,0,0,1,.106,1.432l-.106.123L12.142,12.142a1.1,1.1,0,0,1-1.432.106l-.123-.106L.322,1.877A1.1,1.1,0,0,1,.322.322Z"
                    transform="translate(0 0)"
                    fill="#0059eb"
                  />
     </g>
  </g>
</svg>