<svg xmlns="http://www.w3.org/2000/svg" xmlns:xlink="http://www.w3.org/1999/xlink" width="261" height="388.362" viewBox="0 0 261 388.362">
  <defs>
    <filter id="Rectangle_159" x="4" y="36.362" width="257" height="217" filterUnits="userSpaceOnUse">
      <feOffset dx="6" dy="5" input="SourceAlpha"/>
      <feGaussianBlur stdDeviation="3" result="blur"/>
      <feFlood flood-color="#4e4e4e" flood-opacity="0.129"/>
      <feComposite operator="in" in2="blur"/>
      <feComposite in="SourceGraphic"/>
    </filter>
    <clipPath id="clip-path">
      <path id="Path_21" data-name="Path 21" d="M0,5.332H21.841V-15.03H0Z" transform="translate(0 15.03)" fill="#0059eb"/>
    </clipPath>
    <clipPath id="clip-path-2">
      <rect id="Rectangle_7" data-name="Rectangle 7" width="88783.141" height="88783.141" fill="#0059eb"/>
    </clipPath>
    <filter id="Rectangle_166" x="0" y="318.362" width="261" height="70" filterUnits="userSpaceOnUse">
      <feOffset dx="6" dy="5" input="SourceAlpha"/>
      <feGaussianBlur stdDeviation="3" result="blur-2"/>
      <feFlood flood-color="#4e4e4e" flood-opacity="0.129"/>
      <feComposite operator="in" in2="blur-2"/>
      <feComposite in="SourceGraphic"/>
    </filter>
  </defs>
  <g transform="matrix(1, 0, 0, 1, 0, 0)" filter="url(#Rectangle_159)">
    <rect id="Rectangle_159-2" data-name="Rectangle 159" width="239" height="199" rx="18" transform="translate(7 40.36)" fill="#fff" opacity="0.39"/>
  </g>
  <rect id="Rectangle_160" data-name="Rectangle 160" width="196" height="25" rx="12.5" transform="translate(34 107.362)" fill="#0059eb"/>
  <text id="Date" transform="translate(41)" fill="#0059eb" font-size="17" font-family="Arial-BoldMT, Arial" font-weight="700"><tspan x="0" y="15">Date</tspan></text>
  <text id="Candidates_name" data-name="Candidates name" transform="translate(12 286.362)" fill="#0059eb" font-size="17" font-family="Arial-BoldMT, Arial" font-weight="700"><tspan x="0" y="15">Candidates name</tspan></text>
  <g id="Group_127" data-name="Group 127" transform="translate(10.159)">
    <g id="Group_30" data-name="Group 30" transform="translate(0 0)" clip-path="url(#clip-path)">
      <g id="Group_29" data-name="Group 29" transform="translate(-44392.25 -44370.523)" style="isolation: isolate">
        <g id="Group_28" data-name="Group 28">
          <g id="Group_27" data-name="Group 27" clip-path="url(#clip-path-2)">
            <g id="Group_16" data-name="Group 16" transform="translate(44407.445 44377.465)">
              <path id="Path_10" data-name="Path 10" d="M.217,0a.83.83,0,1,1-.83.83A.831.831,0,0,1,.217,0" transform="translate(0.613)" fill="#0059eb"/>
            </g>
            <g id="Group_17" data-name="Group 17" transform="translate(44392.25 44369.57)">
              <path id="Path_11" data-name="Path 11" d="M4.7.435H3.618V-.4a.831.831,0,0,0-.83-.83.83.83,0,0,0-.83.83v.83h-3.78V-.4a.831.831,0,0,0-.83-.83.831.831,0,0,0-.832.83v.83H-7.222V-.4a.83.83,0,0,0-.83-.83.83.83,0,0,0-.83.83v.83H-9.922a3.326,3.326,0,0,0-3.322,3.323V16.716a3.327,3.327,0,0,0,3.322,3.323h6.355a.831.831,0,0,0,.83-.832.831.831,0,0,0-.83-.83H-9.922a1.663,1.663,0,0,1-1.661-1.661V3.758A1.663,1.663,0,0,1-9.922,2.1h1.039v.83a.831.831,0,0,0,.83.832.831.831,0,0,0,.83-.832V2.1h3.738v.83a.832.832,0,0,0,.832.832.832.832,0,0,0,.83-.832V2.1h3.78v.83a.83.83,0,1,0,1.661,0V2.1H4.7A1.663,1.663,0,0,1,6.359,3.758V8.493a.831.831,0,0,0,1.662,0V3.758A3.327,3.327,0,0,0,4.7.435" transform="translate(13.244 1.226)" fill="#0059eb"/>
            </g>
            <g id="Group_18" data-name="Group 18" transform="translate(44403.457 44380.785)">
              <path id="Path_12" data-name="Path 12" d="M1.316,0A5.025,5.025,0,1,0,6.342,5.026,5.031,5.031,0,0,0,1.316,0m0,8.39A3.365,3.365,0,1,1,4.68,5.026,3.368,3.368,0,0,1,1.316,8.39" transform="translate(3.71)" fill="#0059eb"/>
            </g>
            <g id="Group_19" data-name="Group 19" transform="translate(44407.652 44383.281)">
              <path id="Path_13" data-name="Path 13" d="M.533.446H.159V-.427a.831.831,0,0,0-.83-.83.831.831,0,0,0-.83.83v1.7a.83.83,0,0,0,.83.83h1.2a.83.83,0,0,0,0-1.661" transform="translate(1.502 1.257)" fill="#0059eb"/>
            </g>
            <g id="Group_20" data-name="Group 20" transform="translate(44403.836 44377.465)">
              <path id="Path_14" data-name="Path 14" d="M.217,0a.83.83,0,1,1-.83.83A.831.831,0,0,1,.217,0" transform="translate(0.613)" fill="#0059eb"/>
            </g>
            <g id="Group_21" data-name="Group 21" transform="translate(44400.223 44381.07)">
              <path id="Path_15" data-name="Path 15" d="M.217,0a.83.83,0,1,1-.83.83A.831.831,0,0,1,.217,0" transform="translate(0.613)" fill="#0059eb"/>
            </g>
            <g id="Group_22" data-name="Group 22" transform="translate(44396.609 44377.465)">
              <path id="Path_16" data-name="Path 16" d="M.217,0a.83.83,0,1,1-.83.83A.831.831,0,0,1,.217,0" transform="translate(0.613)" fill="#0059eb"/>
            </g>
            <g id="Group_23" data-name="Group 23" transform="translate(44396.609 44381.07)">
              <path id="Path_17" data-name="Path 17" d="M.217,0a.83.83,0,1,1-.83.83A.831.831,0,0,1,.217,0" transform="translate(0.613)" fill="#0059eb"/>
            </g>
            <g id="Group_24" data-name="Group 24" transform="translate(44396.609 44384.691)">
              <path id="Path_18" data-name="Path 18" d="M.217,0a.83.83,0,1,1-.83.83A.831.831,0,0,1,.217,0" transform="translate(0.613)" fill="#0059eb"/>
            </g>
            <g id="Group_25" data-name="Group 25" transform="translate(44400.223 44384.691)">
              <path id="Path_19" data-name="Path 19" d="M.217,0a.83.83,0,1,1-.83.83A.831.831,0,0,1,.217,0" transform="translate(0.613)" fill="#0059eb"/>
            </g>
            <g id="Group_26" data-name="Group 26" transform="translate(44400.223 44377.465)">
              <path id="Path_20" data-name="Path 20" d="M.217,0a.83.83,0,1,1-.83.83A.831.831,0,0,1,.217,0" transform="translate(0.613)" fill="#0059eb"/>
            </g>
          </g>
        </g>
      </g>
    </g>
  </g>
  <text id="August" transform="translate(87 47.362)" fill="#0059eb" font-size="20" font-family="Arial-BoldMT, Arial" font-weight="700"><tspan x="0" y="18">August</tspan></text>
  <text id="_2021" data-name="2021" transform="translate(106 75.362)" fill="#0059eb" font-size="15" font-family="Arial-BoldMT, Arial" font-weight="700" opacity="0.52"><tspan x="0" y="14">2021</tspan></text>
  <text id="_02_08_2021_-_08_08_2021" data-name="02/08/2021 - 08/08/2021" transform="translate(40 110.362)" fill="#fff" font-size="15" font-family="Montserrat-Bold, Montserrat" font-weight="700"><tspan x="0" y="15">02/08/2021 - 08/08/2021</tspan></text>
  <text id="_09_08_2021_-_15_08_2021" data-name="09/08/2021 - 15/08/2021" transform="translate(40 139.362)" fill="#0059eb" font-size="15" font-family="Montserrat-Bold, Montserrat" font-weight="700"><tspan x="0" y="15">09/08/2021 - 15/08/2021</tspan></text>
  <text id="_16_08_2021_-_22_08_2021" data-name="16/08/2021 - 22/08/2021" transform="translate(40 166.362)" fill="#0059eb" font-size="15" font-family="Montserrat-Bold, Montserrat" font-weight="700"><tspan x="0" y="15">16/08/2021 - 22/08/2021</tspan></text>
  <text id="_23_08_2021_-_29_08_2021" data-name="23/08/2021 - 29/08/2021" transform="translate(40 193.362)" fill="#0059eb" font-size="15" font-family="Montserrat-Bold, Montserrat" font-weight="700"><tspan x="0" y="15">23/08/2021 - 29/08/2021</tspan></text>
  <g id="Iconly_Light-Outline_Arrow_-_Right" data-name="Iconly/Light-Outline/Arrow - Right" transform="translate(174 47.362)">
    <g id="Arrow_-_Right" data-name="Arrow - Right" transform="translate(4.676 21.625) rotate(-90)">
      <path id="Combined_Shape" data-name="Combined Shape" d="M7.553,19.207a.877.877,0,0,1-.261-.184L.256,11.957A.877.877,0,0,1,1.4,10.635l.1.085,5.544,5.567V.876A.877.877,0,0,1,8.787.757L8.8.876V16.287L14.34,10.72a.876.876,0,0,1,1.327,1.138l-.084.1L8.54,19.028a.875.875,0,0,1-.987.178Z" transform="translate(0)" stroke="#707070" stroke-width="2"/>
    </g>
  </g>
  <g id="Iconly_Light-Outline_Arrow_-_Right-2" data-name="Iconly/Light-Outline/Arrow - Right" transform="translate(69 73.362) rotate(180)">
    <g id="Arrow_-_Right-2" data-name="Arrow - Right" transform="translate(4 18.5) rotate(-90)">
      <path id="Combined_Shape-2" data-name="Combined Shape" d="M6.462,16.432a.75.75,0,0,1-.223-.157L.219,10.229A.75.75,0,0,1,1.2,9.1l.084.073,4.743,4.762V.75a.75.75,0,0,1,1.493-.1l.007.1V13.934l4.743-4.763a.75.75,0,0,1,1.135.974l-.072.085-6.025,6.05a.749.749,0,0,1-.844.152Z" transform="translate(0)" stroke="#707070" stroke-width="2"/>
    </g>
  </g>
  <g transform="matrix(1, 0, 0, 1, 0, 0)" filter="url(#Rectangle_166)">
    <rect id="Rectangle_166-2" data-name="Rectangle 166" width="243" height="52" rx="18" transform="translate(3 322.36)" fill="#fff" opacity="0.39"/>
  </g>
</svg>
